<?xml version="1.0" encoding="UTF-8"?>
<svg width="605px" height="605px" viewBox="0 0 605 605" version="1.1" xmlns="http://www.w3.org/2000/svg" xmlns:xlink="http://www.w3.org/1999/xlink">
    <!-- Generator: Sketch 50.2 (55047) - http://www.bohemiancoding.com/sketch -->
    <title>Close</title>
    <desc>Created with Sketch.</desc>
    <defs></defs>
    <g id="Symbols" stroke="none" stroke-width="1" fill="none" fill-rule="evenodd">
        <g id="Close" fill="#000000" fill-rule="nonzero">
            <g id="Group">
                <polygon id="Shape" points="395.259464 179.188036 302.5 271.9475 209.740536 179.188036 179.188036 209.740536 271.9475 302.5 179.188036 395.259464 209.740536 425.811964 302.5 333.0525 395.259464 425.811964 425.811964 395.259464 333.0525 302.5 425.811964 209.740536"></polygon>
                <path d="M302.5,0 C135.455179,0 0,135.455179 0,302.5 C0,469.544821 135.455179,605 302.5,605 C469.544821,605 605,469.544821 605,302.5 C605,135.455179 469.544821,0 302.5,0 Z M302.5,561.785714 C159.525536,561.785714 43.2142857,445.474464 43.2142857,302.5 C43.2142857,159.525536 159.525536,43.2142857 302.5,43.2142857 C445.474464,43.2142857 561.785714,159.525536 561.785714,302.5 C561.785714,445.474464 445.474464,561.785714 302.5,561.785714 Z" id="Shape"></path>
            </g>
        </g>
    </g>
</svg>